:SAMPLES-PER-SECOND 30
:FULLY-SPECIFIED
:DEGREES
114
root  -60.8484 40.2596 -8.04942 -66.1745 -86.7535 60.1804
RightUpLeg  -16.5512 -7.3589 -6.32103
RightLeg  -1.9195 -11.9715 4.79975
RightFoot  -2.83792 -0.449243 5.71627
RightToes  3.49245e-010 0 -3.6325e-017
Spine  9.93591 -3.72098 -3.82937
Spine1  4.44662 -4.67978 2.39024
HEad  -15.2864 5.69855 -2.53436
LeftShoulder1  6.77558 -10.6425 -41.5407
LeftArm  3.99957 9.51805 -31.951
LeftForeArm  -175.884 -65.5092 -159.979
LeftHand  -0.244104 0.0205437 5.32207
RightShoulder  4.03901 8.15061 28.661
RightArm  14.5768 -43.2828 14.9289
RightForeArm  112.841 79.3568 110.494
RightHand  0.131191 -10.6782 -3.99082
LeftUpLeg  11.1815 10.0261 -2.65471
LeftLeg  15.9976 4.06167 -1.32401
LeftFoot  -14.7951 0.118983 0.930655
LeftToes  1.68253e-010 -2.29257e-011 3.59052e-011
115
root  -62.5174 39.7745 -8.27796 -65.137 -85.6405 58.7664
RightUpLeg  -16.544 -7.68081 -6.67228
RightLeg  -1.39926 -10.0872 4.20857
RightFoot  -0.354249 -0.531738 5.57329
RightToes  3.49245e-010 0 -3.6325e-017
Spine  8.60759 -3.8915 -4.923
Spine1  5.67315 -5.03564 2.70281
HEad  -14.2334 5.75925 -2.2436
LeftShoulder1  6.84875 -10.803 -41.5173
LeftArm  4.38138 8.14953 -31.8814
LeftForeArm  -177.924 -67.1161 -158.244
LeftHand  -0.244104 0.0205437 5.32207
RightShoulder  3.71601 7.55436 27.5851
RightArm  12.3243 -44.7209 15.6243
RightForeArm  103.985 79.7516 102.306
RightHand  0.177562 -10.7696 -4.89206
LeftUpLeg  13.5922 11.6877 -2.56412
LeftLeg  17.9788 1.7624 -0.354247
LeftFoot  -17.466 0.0988334 -0.0636921
LeftToes  1.68253e-010 -2.29257e-011 3.59052e-011
116
root  -64.0991 39.244 -8.43182 -57.7187 -85.911 50.8944
RightUpLeg  -18.1409 -8.49327 -5.5544
RightLeg  4.41633 -8.22971 3.20883
RightFoot  5.88787 -0.272876 2.22544
RightToes  3.49245e-010 0 -3.6325e-017
Spine  7.85354 -4.19445 -3.46265
Spine1  6.93416 -5.22889 2.34845
HEad  -13.9947 6.13204 -2.45307
LeftShoulder1  6.95903 -10.6305 -42.7904
LeftArm  4.18701 7.60723 -30.9686
LeftForeArm  -179.81 -69.2764 -155.633
LeftHand  -0.244104 0.0205437 5.32207
RightShoulder  3.47241 6.78908 27.7283
RightArm  8.75744 -44.1795 16.9135
RightForeArm  88.3325 79.9379 87.3121
RightHand  0.211501 -10.6075 -5.74044
LeftUpLeg  14.9844 12.0497 -1.50316
LeftLeg  21.8423 0.924276 0.899972
LeftFoot  -20.6364 -0.129847 -2.96138
LeftToes  1.68253e-010 -2.29257e-011 3.59052e-011
117
root  -65.5694 38.7461 -8.50337 -63.1598 -88.4734 55.7679
RightUpLeg  -20.8668 -12.596 -1.04173
RightLeg  12.5226 -3.32789 2.0743
RightFoot  11.6158 0.634078 -2.78956
RightToes  3.49245e-010 0 -3.6325e-017
Spine  8.31836 -4.61204 1.45621
Spine1  7.33497 -5.06246 0.980655
HEad  -15.2337 6.33338 -3.2296
LeftShoulder1  7.16011 -10.3279 -45.094
LeftArm  3.33297 8.18705 -29.8793
LeftForeArm  176.936 -72.7603 -150.016
LeftHand  -0.244104 0.0205437 5.32207
RightShoulder  3.437 6.24646 29.2669
RightArm  3.38352 -41.8719 18.8169
RightForeArm  66.0242 78.8941 64.7098
RightHand  0.231437 -9.93264 -6.96818
LeftUpLeg  14.0906 10.1788 1.25564
LeftLeg  29.9054 2.22306 1.72544
LeftFoot  -21.5431 -0.572944 -8.13766
LeftToes  1.68253e-010 -2.29257e-011 3.59052e-011
118
root  -66.8358 38.3986 -8.60041 50.3809 -87.504 -58.0654
RightUpLeg  -23.4351 -17.0233 4.81527
RightLeg  19.6635 1.91585 0.829016
RightFoot  11.9148 1.41536 -6.5231
RightToes  3.49245e-010 0 -3.6325e-017
Spine  9.75723 -4.76693 6.71102
Spine1  6.42088 -4.54547 0.156427
HEad  -16.7595 6.00862 -4.2343
LeftShoulder1  7.62152 -10.5088 -47.4423
LeftArm  1.55421 10.4096 -29.8224
LeftForeArm  163.578 -78.0216 -133.347
LeftHand  -0.244104 0.0205437 5.32207
RightShoulder  3.71026 6.36549 31.6398
RightArm  -3.9046 -38.7037 21.8006
RightForeArm  43.4069 74.7826 40.6592
RightHand  0.213945 -8.4748 -9.36605
LeftUpLeg  9.79051 9.33893 5.08469
LeftLeg  42.003 2.53837 2.86305
LeftFoot  -15.7277 -0.3638 -11.6438
LeftToes  1.68253e-010 -2.29257e-011 3.59052e-011
119
root  -67.8244 38.285 -8.78701 71.0664 -85.703 -78.5856
RightUpLeg  -24.1808 -16.578 7.01614
RightLeg  23.9272 1.0143 0.206826
RightFoot  8.07548 1.38977 -7.74886
RightToes  3.49245e-010 0 -3.6325e-017
Spine  11.5295 -4.56327 9.11452
Spine1  4.58377 -4.06875 1.12013
HEad  -16.8994 5.31053 -4.61356
LeftShoulder1  8.15216 -11.1305 -48.6314
LeftArm  -0.784478 13.7852 -31.1478
LeftForeArm  117.862 -81.2791 -84.9068
LeftHand  -0.244104 0.0205437 5.32207
RightShoulder  4.2028 7.01714 33.97
RightArm  -11.4137 -35.1763 25.7994
RightForeArm  26.5718 66.9111 24.6758
RightHand  0.0336286 -5.91438 -13.3492
LeftUpLeg  2.40356 8.05949 7.33776
LeftLeg  54.6694 2.73753 4.64709
LeftFoot  -4.98803 0.555885 -10.0405
LeftToes  1.68253e-010 -2.29257e-011 3.59052e-011
120
root  -68.6273 38.407 -8.99825 55.5488 -84.7883 -62.6811
RightUpLeg  -23.595 -17.7957 7.18655
RightLeg  25.2236 0.611534 0.0813563
RightFoot  4.919 1.0841 -7.33852
RightToes  3.49245e-010 0 -3.6325e-017
Spine  12.7594 -4.30813 9.34573
Spine1  3.03497 -3.72345 2.25196
HEad  -15.9718 4.28024 -3.79369
LeftShoulder1  8.40464 -11.6396 -48.4375
LeftArm  -2.40764 16.7043 -32.6441
LeftForeArm  72.9526 -76.5329 -38.8422
LeftHand  -0.244104 0.0205437 5.32207
RightShoulder  4.68394 7.67176 35.944
RightArm  -16.1571 -31.1239 29.7004
RightForeArm  11.9983 56.8414 16.3503
RightHand  -0.45291 -2.39723 -17.4447
LeftUpLeg  -5.66765 6.34742 7.34129
LeftLeg  64.4508 2.62692 6.65822
LeftFoot  1.33791 0.660428 -5.8221
LeftToes  1.68253e-010 -2.29257e-011 3.59052e-011
121
root  -69.4508 38.8524 -9.16519 40.813 -84.7028 -47.5539
RightUpLeg  -21.4735 -19.467 5.96036
RightLeg  23.6008 1.0259 0.77405
RightFoot  4.57551 0.988581 -6.83759
RightToes  3.49245e-010 0 -3.6325e-017
Spine  12.2593 -3.53228 8.33046
Spine1  4.3812 -3.45514 4.02903
HEad  -16.6277 3.00732 -4.18466
LeftShoulder1  8.80916 -11.6563 -50.7103
LeftArm  -2.42948 16.7293 -31.1629
LeftForeArm  56.4837 -69.045 -23.0467
LeftHand  -0.244104 0.0205437 5.32207
RightShoulder  4.55244 7.50407 35.388
RightArm  -16.1084 -25.4253 33.5166
RightForeArm  -0.411699 47.0464 12.0197
RightHand  -0.961719 0.560187 -18.8808
LeftUpLeg  -11.9873 5.73207 6.09665
LeftLeg  69.5806 2.65327 8.68533
LeftFoot  0.217713 0.333106 -3.29228
LeftToes  1.68253e-010 -2.29257e-011 3.59052e-011
122
root  -70.304 39.4406 -9.29781 32.9095 -85.5686 -39.323
RightUpLeg  -18.3055 -17.4064 3.54039
RightLeg  20.5558 -0.74206 1.79408
RightFoot  5.01268 0.975969 -6.5402
RightToes  3.49245e-010 0 -3.6325e-017
Spine  11.9071 -2.42876 8.83028
Spine1  4.24369 -1.92146 2.09581
HEad  -16.2913 0.62768 -3.15515
LeftShoulder1  8.94297 -11.9066 -50.6504
LeftArm  -1.15705 17.7774 -29.745
LeftForeArm  48.284 -61.4293 -15.9792
LeftHand  -0.244104 0.0205437 5.32207
RightShoulder  4.90182 8.05649 36.3922
RightArm  -12.4765 -22.389 34.9812
RightForeArm  -6.10612 40.4086 9.8746
RightHand  -0.973921 1.21731 -17.0933
LeftUpLeg  -16.0827 6.90868 4.87106
LeftLeg  70.17 2.85257 9.62157
LeftFoot  -3.76927 0.270007 -3.81393
LeftToes  1.68253e-010 -2.29257e-011 3.59052e-011
123
root  -71.1293 39.9602 -9.43549 23.9367 -86.9796 -30.0914
RightUpLeg  -15.1579 -13.1509 1.05028
RightLeg  17.3795 -3.81054 2.66714
RightFoot  4.80169 0.914896 -6.20877
RightToes  3.49245e-010 0 -3.6325e-017
Spine  11.9475 -1.15761 9.27294
Spine1  3.12678 -0.0471393 -0.394614
HEad  -15.4195 -1.70605 -2.23601
LeftShoulder1  8.82365 -12.1396 -49.2368
LeftArm  -0.162154 19.7249 -28.8904
LeftForeArm  43.062 -54.208 -11.9661
LeftHand  -0.244104 0.0205437 5.32207
RightShoulder  5.40188 8.85551 37.6852
RightArm  -8.04625 -21.2621 35.5857
RightForeArm  -2.98889 37.5008 8.77385
RightHand  -0.739415 0.644278 -14.3237
LeftUpLeg  -18.592 9.10714 3.92839
LeftLeg  67.1784 3.28664 9.29579
LeftFoot  -6.09556 0.274615 -5.13934
LeftToes  1.68253e-010 -2.29257e-011 3.59052e-011
124
root  -71.9016 40.3707 -9.56137 3.70992 -87.8333 -9.58315
RightUpLeg  -12.4425 -9.87075 -0.907539
RightLeg  14.3312 -6.39523 3.42154
RightFoot  4.77498 0.873303 -5.92847
RightToes  3.49245e-010 0 -3.6325e-017
Spine  11.39 -0.150177 8.38805
Spine1  3.27101 0.88237 -0.65119
HEad  -15.0659 -2.62371 -2.79001
LeftShoulder1  8.71013 -11.9949 -49.0574
LeftArm  -0.262727 21.0555 -27.3993
LeftForeArm  38.5615 -47.9288 -9.56133
LeftHand  -0.244104 0.0205437 5.32207
RightShoulder  5.43072 8.99937 37.412
RightArm  -4.54967 -19.5493 36.9644
RightForeArm  3.39601 36.3461 8.05897
RightHand  -0.712681 0.853238 -13.3392
LeftUpLeg  -19.9339 11.1843 3.07713
LeftLeg  61.3351 4.1097 8.69163
LeftFoot  -7.05083 0.228626 -4.92864
LeftToes  1.68253e-010 -2.29257e-011 3.59052e-011
125
root  -72.6109 40.6705 -9.63383 -15.1564 -87.8447 9.56034
RightUpLeg  -10.2777 -8.48902 -1.94902
RightLeg  11.8639 -7.67162 3.93711
RightFoot  5.0596 0.889891 -5.92502
RightToes  3.49245e-010 0 -3.6325e-017
Spine  10.7644 0.153563 7.97474
Spine1  3.34358 1.17273 -1.16191
HEad  -14.8522 -2.39598 -3.30776
LeftShoulder1  8.53396 -11.7831 -48.7287
LeftArm  -0.676738 22.7133 -25.4932
LeftForeArm  33.7341 -42.6241 -8.03987
LeftHand  -0.244104 0.0205437 5.32207
RightShoulder  5.39816 8.89648 37.5076
RightArm  -2.56608 -17.8078 38.1696
RightForeArm  5.48772 35.074 7.57237
RightHand  -0.895153 1.94968 -14.2773
LeftUpLeg  -19.8692 12.4217 2.63837
LeftLeg  53.0248 4.96371 7.53116
LeftFoot  -8.90183 0.147686 -4.54775
LeftToes  1.68253e-010 -2.29257e-011 3.59052e-011
